<svg width="18" height="18" viewBox="0 0 18 18" xmlns="http://www.w3.org/2000/svg">
              <path d="M9 0c2.444 0 2.75.01 3.71.054s1.613.196 2.185.42c.592.228 1.094.536 1.594 1.037.5.5.808 1.003 1.038 1.595.222.572.374 1.226.418 2.184C17.99 6.25 18 6.555 18 9s-.01 2.75-.054 3.71-.196 1.613-.418 2.185c-.23.592-.538 1.094-1.04 1.594-.5.5-1 .808-1.593 1.038-.572.222-1.226.374-2.184.418-.96.044-1.266.054-3.71.054s-2.75-.01-3.71-.054-1.613-.196-2.185-.418c-.592-.23-1.094-.538-1.594-1.04-.5-.5-.808-1-1.037-1.593-.223-.572-.375-1.226-.42-2.184C.01 11.75 0 11.445 0 9s.01-2.75.054-3.71.196-1.613.42-2.185C.7 2.513 1.01 2.01 1.51 1.51c.5-.5 1.003-.808 1.595-1.037C3.677.25 4.33.098 5.29.053 6.25.01 6.555 0 9 0zm0 1.622c-2.403 0-2.688.01-3.637.052-.877.04-1.354.187-1.67.31-.42.163-.72.358-1.036.673-.315.315-.51.615-.673 1.035-.123.317-.27.794-.31 1.67-.043.95-.052 1.235-.052 3.638 0 2.403.01 2.688.052 3.637.04.877.187 1.354.31 1.67.163.42.358.72.673 1.036.315.315.615.51 1.035.673.317.123.794.27 1.67.31.95.043 1.235.052 3.638.052 2.403 0 2.688-.01 3.637-.052.877-.04 1.354-.187 1.67-.31.42-.163.72-.358 1.036-.673.315-.315.51-.615.673-1.035.123-.317.27-.794.31-1.67.043-.95.052-1.235.052-3.638 0-2.403-.01-2.688-.052-3.637-.04-.877-.187-1.354-.31-1.67-.163-.42-.358-.72-.673-1.036-.315-.315-.615-.51-1.035-.673-.317-.123-.794-.27-1.67-.31-.95-.043-1.235-.052-3.638-.052zm0 2.756c2.552 0 4.622 2.07 4.622 4.622S11.552 13.622 9 13.622 4.378 11.552 4.378 9 6.448 4.378 9 4.378zM9 12c1.657 0 3-1.343 3-3s-1.343-3-3-3-3 1.343-3 3 1.343 3 3 3zm5.884-7.804c0 .596-.483 1.08-1.08 1.08-.596 0-1.08-.484-1.08-1.08 0-.597.484-1.08 1.08-1.08.597 0 1.08.483 1.08 1.08z" fill="#000" fill-rule="evenodd"></path>
            </svg>